<svg width="335" height="306" viewBox="0 0 335 306" fill="none" xmlns="http://www.w3.org/2000/svg">
<path d="M166.819 154.27V154.277L166.836 154.284L166.819 154.27Z" fill="#F5F5F5"/>
<path d="M166.911 154.389L166.873 154.424H166.965L166.911 154.389Z" fill="#F5F5F5"/>
<path d="M167.033 154.417V154.424H167.056L167.033 154.417Z" fill="#F5F5F5"/>
<path d="M166.972 154.424H167.026L166.988 154.403L166.972 154.424Z" fill="#F5F5F5"/>
<path d="M166.796 154.396L166.789 154.354L166.544 154.284L166.766 154.417L166.796 154.396Z" fill="#F5F5F5"/>
<path d="M166.804 154.361V154.396L166.835 154.382L166.804 154.361Z" fill="#F5F5F5"/>
<path d="M167.019 154.375L167.01 154.389L167.027 154.396L167.019 154.375Z" fill="#F5F5F5"/>
<path d="M166.981 154.403H166.965L166.973 154.417L166.981 154.403Z" fill="#F5F5F5"/>
<path d="M166.835 154.375L166.85 154.368L166.827 154.361L166.835 154.375Z" fill="#F5F5F5"/>
<path d="M167.003 154.354L166.972 154.368L166.988 154.375L167.003 154.354Z" fill="#F5F5F5"/>
<path d="M156.792 88.8361L166.904 153.696L176.931 88.8361H177.091L190.491 1.44161C174.667 -0.550671 158.613 -0.477626 142.811 1.65856L156.509 88.8361H156.792Z" fill="#F5F5F5"/>
<path d="M196.923 94.1823L167.095 154.221L277.094 37.3493C264.945 27.721 251.344 19.7428 236.71 13.6602L196.793 94.1404L196.923 94.1823Z" fill="#F5F5F5"/>
<path d="M97.6472 135.829L166.368 154.242H166.1L166.766 154.417H166.812V154.382L166.865 154.417H166.773L166.827 154.452L167.102 154.564L166.873 154.431L235.999 172.948C235.99 172.996 235.977 173.042 235.961 173.088L327.619 197.736C332.353 183.638 334.838 168.989 335 154.242H239.112V154.354L167.087 154.424V154.368L167.401 154.277L167.141 154.431L167.783 154.263H167.469L328.422 110.608C323.931 96.4212 317.217 82.9048 308.491 70.4795L167.393 154.242H167.148L167.248 154.13L167.064 154.242L167.133 153.885L167.003 154.151V154.242L166.919 154.298V154.242H166.865V154.151L166.735 153.92L166.781 154.214L166.636 154.13L166.712 154.207H166.475L25.8746 71.4033C17.2968 83.7978 10.7153 97.2585 6.33289 111.37L97.6472 135.864V135.829ZM166.873 154.403V154.445L166.651 154.312L166.873 154.403Z" fill="#F5F5F5"/>
<path d="M119.583 104.394L166.735 154.186L136.815 94.211L96.8594 14.2627C82.3423 20.4573 68.8693 28.5218 56.8506 38.2108L119.567 104.401L119.583 104.394Z" fill="#F5F5F5"/>
<path d="M307.519 237.388L227.662 190.213C227.647 190.232 227.634 190.253 227.624 190.276L167.202 154.683L214.308 204.37L214.193 204.461L276.107 269.951C288.205 260.508 298.78 249.544 307.519 237.388Z" fill="#F5F5F5"/>
<path d="M167.011 154.571V154.564L167.003 154.557L167.011 154.571Z" fill="#F5F5F5"/>
<path d="M166.842 154.438L166.835 154.459L166.804 154.445L166.812 154.494L166.819 154.487L166.865 154.48L166.842 154.466L166.857 154.445H166.873L166.865 154.438L166.873 154.424H166.804L166.842 154.438Z" fill="#F5F5F5"/>
<path d="M166.498 154.578L166.781 154.501L166.796 154.438L166.773 154.424L166.498 154.578Z" fill="#F5F5F5"/>
<path d="M166.613 154.704L106.351 190.479L106.213 190.276L27.236 237.039C35.8943 249.153 46.3764 260.089 58.3726 269.525L128.791 194.895L166.613 154.704Z" fill="#F5F5F5"/>
<path d="M97.6854 173.144L166.735 154.424L0 154.62C0.118742 169.196 2.51134 183.681 7.10537 197.638L97.6701 173.186L97.6854 173.144Z" fill="#F5F5F5"/>
<path d="M98.1519 292.808C112.572 298.811 127.854 302.9 143.537 304.95L166.735 154.928L98.1519 292.808Z" fill="#F5F5F5"/>
<path d="M167.027 154.487V154.459L167.01 154.466L167.027 154.487Z" fill="#F5F5F5"/>
<path d="M190.514 305.083C206.236 303.111 221.568 299.091 236.045 293.144L167.102 154.914L190.514 305.083Z" fill="#F5F5F5"/>
<path d="M166.842 154.676L166.919 155.173L166.995 154.69L166.911 154.536L166.842 154.676Z" fill="#F5F5F5"/>
<path d="M167.004 154.473L166.988 154.48L167.004 154.487V154.473Z" fill="#F5F5F5"/>
</svg>
