<?xml version="1.0" encoding="UTF-8"?>
<svg version="1.1" xmlns="http://www.w3.org/2000/svg" width="512" height="512">
<path d="M0 0 C1.54856662 -0.00373947 3.09713136 -0.00834217 4.64569312 -0.01373065 C8.88953387 -0.02593951 13.13329565 -0.02570267 17.37714994 -0.02334189 C21.95877184 -0.02293319 26.54036861 -0.03397803 31.12197876 -0.04345703 C40.09423795 -0.06005669 49.06647085 -0.06556612 58.03874411 -0.06668179 C65.3339266 -0.0676328 72.62910042 -0.07174578 79.92428017 -0.07808304 C100.61807643 -0.09569305 121.31185197 -0.10492235 142.00565579 -0.10342209 C143.12082749 -0.10334218 144.2359992 -0.10326227 145.38496399 -0.10317993 C147.05976965 -0.10305729 147.05976965 -0.10305729 148.76840977 -0.10293217 C166.85896216 -0.10211946 184.94943126 -0.12125398 203.03995957 -0.14945666 C221.6255955 -0.17820201 240.21119083 -0.19199603 258.79684955 -0.19026911 C269.22706642 -0.18960576 279.65719598 -0.19507418 290.08739281 -0.21662521 C298.96878649 -0.23485877 307.85005329 -0.23916651 316.73145761 -0.22560637 C321.2596834 -0.21908756 325.78766591 -0.21892009 330.31586838 -0.23631287 C334.46811012 -0.25209701 338.61991676 -0.24912587 342.77214823 -0.2317446 C344.26742184 -0.2286864 345.76272837 -0.23226224 347.25796314 -0.24346475 C365.45793251 -0.37069765 381.39019256 5.40198199 394.73823547 17.93759155 C405.73591935 28.83361617 413.01300242 44.20615988 413.12783945 59.73040122 C413.12319364 61.12957855 413.12319364 61.12957855 413.11845398 62.55702209 C413.12298509 63.56740612 413.12751621 64.57779015 413.13218462 65.61879188 C413.14480427 68.99089322 413.1432098 72.36283255 413.14155579 75.73495483 C413.14754259 78.1583629 413.15434849 80.58176907 413.16191101 83.00517273 C413.17773142 88.89731089 413.1840188 94.78941132 413.18513577 100.68156638 C413.18608823 105.47484348 413.19020838 110.26810744 413.19653702 115.06138039 C413.21413966 128.67197529 413.22337756 142.28253874 413.22187607 155.89314511 C413.22179616 156.62598138 413.22171625 157.35881765 413.22163391 158.11386108 C413.22155215 158.8475995 413.22147039 159.58133792 413.22138615 160.33731083 C413.2205738 172.22001657 413.2397011 184.10259539 413.26791064 195.98526444 C413.29669375 208.20667362 413.31044792 220.428021 413.30872309 232.64946491 C413.308061 239.50265384 413.31347338 246.35570976 413.33507919 253.20886803 C413.35528171 259.65791386 413.35456199 266.10675196 413.34004593 272.55581474 C413.33796098 274.91598674 413.34263984 277.27617644 413.35476685 279.63631821 C413.46449588 302.48049857 413.46449588 302.48049857 408.85102844 313.26742554 C408.34442688 314.4855896 407.83782532 315.70375366 407.31587219 316.95883179 C398.76997748 333.02336532 386.10153178 344.06003417 368.85102844 350.26742554 C360.78022111 352.53627133 352.98876458 352.55133675 344.65100098 352.52812195 C343.10910858 352.53114562 341.56721768 352.53503619 340.02532941 352.53971452 C335.80461629 352.54997548 331.5839883 352.54781754 327.36326826 352.54353392 C322.80486285 352.54106323 318.24647776 352.55008515 313.68807983 352.55757141 C304.76374835 352.5703111 295.83944697 352.57211299 286.91510793 352.56977115 C279.6595102 352.56798693 272.4039216 352.56973985 265.14832497 352.57399559 C263.59837344 352.57488837 263.59837344 352.57488837 262.01710976 352.57579919 C259.91783434 352.57701097 257.81855892 352.5782251 255.7192835 352.57944157 C236.03845424 352.5903144 216.35764213 352.58815589 196.67681191 352.58205672 C178.6826596 352.57688838 160.68856143 352.5881413 142.69441982 352.60715494 C124.20706895 352.6265396 105.71974369 352.6347882 87.2323826 352.63103169 C76.85756257 352.62912053 66.48278863 352.63159893 56.10797691 352.64574623 C47.27526823 352.65766902 38.442634 352.65905486 29.60992428 352.64695606 C25.1061591 352.64107357 20.60253002 352.6399505 16.09877396 352.65195847 C11.97012461 352.66283809 7.84172466 352.65968931 3.71308688 352.64569678 C2.22526541 352.64305556 0.73742425 352.64539822 -0.75037787 352.65343264 C-19.53141593 352.74775629 -35.38728621 347.55495852 -49.13749695 334.54672241 C-60.05260672 323.6147423 -67.3111707 308.29825293 -67.42578256 292.80444986 C-67.42113676 291.40527252 -67.42113676 291.40527252 -67.41639709 289.97782898 C-67.42092821 288.96744495 -67.42545932 287.95706092 -67.43012774 286.9160592 C-67.44274738 283.54395785 -67.44115292 280.17201853 -67.4394989 276.79989624 C-67.44548571 274.37648817 -67.45229161 271.95308201 -67.45985413 269.52967834 C-67.47567453 263.63754019 -67.48196191 257.74543976 -67.48307888 251.85328469 C-67.48403134 247.0600076 -67.4881515 242.26674363 -67.49448013 237.47347069 C-67.51208278 223.86287578 -67.52132068 210.25231234 -67.51981919 196.64170597 C-67.51973927 195.90886969 -67.51965936 195.17603342 -67.51957703 194.42098999 C-67.51949527 193.68725157 -67.5194135 192.95351316 -67.51932926 192.19754025 C-67.51851692 180.3148345 -67.53764422 168.43225568 -67.56585376 156.54958663 C-67.59463686 144.32817746 -67.60839104 132.10683007 -67.60666621 119.88538617 C-67.60600412 113.03219723 -67.61141649 106.17914132 -67.63302231 99.32598305 C-67.65322482 92.87693721 -67.6525051 86.42809911 -67.63798904 79.97903633 C-67.6359041 77.61886433 -67.64058296 75.25867463 -67.65270996 72.89853287 C-67.76243899 50.05435251 -67.76243899 50.05435251 -63.14897156 39.26742554 C-62.64237 38.04926147 -62.13576843 36.83109741 -61.61381531 35.57601929 C-52.44624503 18.34286287 -38.53683937 7.26511764 -19.92073345 1.21895409 C-13.39323734 -0.36722233 -6.67452717 -0.01527859 0 0 Z M28.85102844 105.26742554 C27.97833313 106.07180054 27.10563782 106.87617554 26.20649719 107.70492554 C9.84514187 123.40397712 -1.89741589 145.94038707 -2.38725281 168.94320679 C-2.89128452 199.15318021 5.42111257 223.34982504 26.72602844 245.45492554 C44.12955008 262.38308543 67.63359579 271.82747218 91.85102844 272.26742554 C116.14394263 271.84427105 138.91143348 263.93970217 156.85102844 247.26742554 C157.72372375 246.46305054 158.59641907 245.65867554 159.49555969 244.82992554 C175.85691501 229.13087396 187.59947277 206.594464 188.08930969 183.59164429 C188.59334141 153.38167086 180.28094431 129.18502604 158.97602844 107.07992554 C123.62688539 72.69631295 65.03126875 71.64308918 28.85102844 105.26742554 Z M220.85102844 96.26742554 C220.85102844 106.82742554 220.85102844 117.38742554 220.85102844 128.26742554 C263.09102844 128.26742554 305.33102844 128.26742554 348.85102844 128.26742554 C348.85102844 117.70742554 348.85102844 107.14742554 348.85102844 96.26742554 C306.61102844 96.26742554 264.37102844 96.26742554 220.85102844 96.26742554 Z M220.85102844 160.26742554 C220.85102844 170.82742554 220.85102844 181.38742554 220.85102844 192.26742554 C263.09102844 192.26742554 305.33102844 192.26742554 348.85102844 192.26742554 C348.85102844 181.70742554 348.85102844 171.14742554 348.85102844 160.26742554 C306.61102844 160.26742554 264.37102844 160.26742554 220.85102844 160.26742554 Z M220.85102844 224.26742554 C220.85102844 234.82742554 220.85102844 245.38742554 220.85102844 256.26742554 C263.09102844 256.26742554 305.33102844 256.26742554 348.85102844 256.26742554 C348.85102844 245.70742554 348.85102844 235.14742554 348.85102844 224.26742554 C306.61102844 224.26742554 264.37102844 224.26742554 220.85102844 224.26742554 Z " fill="#000000" transform="translate(83.14897155761719,31.732574462890625)"/>
<path d="M0 0 C31.68 0 63.36 0 96 0 C96 10.56 96 21.12 96 32 C117.12 32 138.24 32 160 32 C160 42.56 160 53.12 160 64 C86.08 64 12.16 64 -64 64 C-64 53.44 -64 42.88 -64 32 C-42.88 32 -21.76 32 0 32 C0 21.44 0 10.88 0 0 Z " fill="#000000" transform="translate(208,416)"/>
<path d="M0 0 C1.06992188 0.474375 2.13984375 0.94875 3.2421875 1.4375 C19.75466286 9.51889971 30.60523995 22.82755446 37 40 C41.30117326 53.9146728 41.09524021 71.68480263 35 85 C34.525625 86.06992188 34.05125 87.13984375 33.5625 88.2421875 C25.53996296 104.63439059 12.16715507 115.82260053 -5 122 C-22.41824347 127.05634913 -41.59366026 125.04005104 -57.41772461 116.46020508 C-72.85764719 107.52172136 -82.86748581 93.36904589 -88.11328125 76.3984375 C-91.19627114 63.38867917 -90.58043482 47.19059274 -85 35 C-84.2884375 33.39511719 -84.2884375 33.39511719 -83.5625 31.7578125 C-75.48110029 15.24533714 -62.17244554 4.39476005 -45 -2 C-31.0853272 -6.30117326 -13.31519737 -6.09524021 0 0 Z M-49 15 C-49 44.7 -49 74.4 -49 105 C-41.87226565 100.46416905 -34.77171356 95.90803832 -27.72265625 91.25390625 C-26.32375404 90.33169533 -26.32375404 90.33169533 -24.89659119 89.39085388 C-22.94096213 88.10139386 -20.985607 86.8115183 -19.03051758 85.52124023 C-16.07368473 83.56988135 -13.11602027 81.61978839 -10.15820312 79.66992188 C-6.41586835 77.20278627 -2.67608211 74.73185631 1.06201172 72.25830078 C4.04880379 70.2829997 7.04258559 68.32019677 10.05126953 66.37841797 C11.14938965 65.66443848 12.24750977 64.95045898 13.37890625 64.21484375 C14.29357666 63.62695068 15.20824707 63.03905762 16.15063477 62.43334961 C17.06607056 61.72384155 17.06607056 61.72384155 18 61 C18 60.34 18 59.68 18 59 C16.41781893 57.66572308 16.41781893 57.66572308 14.31005859 56.34887695 C13.49948502 55.81638336 12.68891144 55.28388977 11.85377502 54.73526001 C10.96101364 54.15875702 10.06825226 53.58225403 9.1484375 52.98828125 C8.23001572 52.38712494 7.31159393 51.78596863 6.36534119 51.16659546 C3.3725262 49.20908304 0.37376094 47.26088858 -2.625 45.3125 C-6.66739382 42.67236879 -10.70674074 40.02759299 -14.74609375 37.3828125 C-16.22662987 36.41479958 -16.22662987 36.41479958 -17.73707581 35.42723083 C-26.00778538 30.01346315 -34.19608763 24.49320253 -42.32080078 18.86254883 C-43.08505371 18.3342749 -43.84930664 17.80600098 -44.63671875 17.26171875 C-45.27311279 16.81787842 -45.90950684 16.37403809 -46.56518555 15.91674805 C-47.85666665 14.91026421 -47.85666665 14.91026421 -49 15 Z " fill="#000000" transform="translate(201,148)"/>
</svg>
