<svg width="360" height="466" viewBox="0 0 360 466" fill="none" xmlns="http://www.w3.org/2000/svg">
<path d="M0 285.131H360V465.131H0V285.131Z" fill="#0961F5"/>
<path fill-rule="evenodd" clip-rule="evenodd" d="M179 180.131C179 180.131 232 167.631 241 163.631C250 159.631 245 139.131 255 139.131C265 139.131 290.5 159.631 306 159.631C321.5 159.631 329 113.131 335.5 113.131C342 113.131 346 139.131 352 139.131C358 139.131 360 103.631 360 103.631V160.131C360 171.177 351.046 180.131 340 180.131H179Z" fill="#1A6EFC"/>
<path fill-rule="evenodd" clip-rule="evenodd" d="M0 64.6311V20.1311C0 9.08541 8.95431 0.131104 20 0.131104H156C156 0.131104 130.5 39.1311 117.5 32.6311C104.5 26.1311 100.914 13.179 83 18.6311C65.0858 24.0832 71.0279 46.7379 60 50.1311C48.9721 53.5243 35 31.6311 28 36.1311C21 40.6311 19.3524 68.7188 16 72.1311C12.6476 75.5434 0 64.6311 0 64.6311Z" fill="#1A6EFC"/>
<path d="M177.57 1.0001L160.43 28.2621" stroke="#1A6EFC" stroke-width="2" stroke-linecap="round" stroke-linejoin="round"/>
<path d="M175.158 24.39L161.682 44.2497" stroke="#1A6EFC" stroke-width="2" stroke-linecap="round" stroke-linejoin="round"/>
<path d="M201 76.4309C201.265 76.4309 201.507 76.5807 201.626 76.8176L205.626 84.8176C205.734 85.0346 205.723 85.2929 205.596 85.4993C205.468 85.7056 205.243 85.8313 205 85.8313H197C196.757 85.8313 196.532 85.7056 196.404 85.4993C196.277 85.2929 196.266 85.0346 196.374 84.8176L200.374 76.8176L200.424 76.7336C200.553 76.5459 200.768 76.4309 201 76.4309Z" stroke="#1A6EFC" stroke-width="1.4" stroke-linejoin="round"/>
<ellipse cx="225" cy="36.1311" rx="20" ry="5" stroke="#1A6EFC" stroke-width="2"/>
</svg>
