<svg width="24" height="24" viewBox="0 0 24 24" fill="none" xmlns="http://www.w3.org/2000/svg">
<g clip-path="url(#clip0_50_146)">
<path d="M20 20.0001C20 20.5524 19.5523 21.0001 19 21.0001H5C4.44772 21.0001 4 20.5524 4 20.0001V11.0001H1L11.3273 1.61162C11.7087 1.26487 12.2913 1.26487 12.6727 1.61162L23 11.0001H20V20.0001Z" fill="black"/>
<path d="M20 20.0001C20 20.5524 19.5523 21.0001 19 21.0001H5C4.44772 21.0001 4 20.5524 4 20.0001V11.0001H1L11.3273 1.61162C11.7087 1.26487 12.2913 1.26487 12.6727 1.61162L23 11.0001H20V20.0001Z" fill="white"/>
</g>
<defs>
<clipPath id="clip0_50_146">
<rect width="24" height="24" fill="white"/>
</clipPath>
</defs>
</svg>
