<?xml version="1.0" encoding="UTF-8"?>
<svg version="1.1" xmlns="http://www.w3.org/2000/svg" width="512" height="512">
<path d="M0 0 C12.13769325 8.23691378 19.61751486 19.19078541 22.8200531 33.59400177 C24.0549784 40.62988624 23.79347879 47.8741244 23.796875 54.9921875 C23.81189093 56.81065314 23.82862511 58.62910533 23.84698486 60.44754028 C23.89028798 65.18533019 23.91057433 69.92293628 23.92572021 74.66088867 C23.94542632 79.5149201 23.98738017 84.36875681 24.02734375 89.22265625 C24.10224356 98.71087688 24.15277716 108.19905309 24.1875 117.6875 C25.09628906 117.35492188 26.00507812 117.02234375 26.94140625 116.6796875 C31.59485077 115.25733502 35.66190819 115.58646721 40.078125 117.51171875 C42.81313683 119.01597526 45.20806321 120.70535752 47.5625 122.75 C53.46643074 127.10766317 59.55624744 128.3163279 66.76953125 127.25390625 C74.06283515 125.54545865 79.08302095 121.95358557 83.1875 115.6875 C85.60736034 111.15148649 86.3496237 106.6890951 87 101.625 C87.85943308 95.91229778 89.65007285 92.31309968 94.1875 88.6875 C97.00030141 87.06664874 99.05544581 86.43232793 102.29418945 86.39697266 C103.09214432 86.38421295 103.89009918 86.37145325 104.7122345 86.35830688 C105.56645493 86.35608124 106.42067535 86.35385559 107.30078125 86.3515625 C108.18855759 86.3449057 109.07633392 86.3382489 109.99101257 86.33139038 C111.8679294 86.32127556 113.74488211 86.316573 115.62182617 86.31689453 C118.47961436 86.31253113 121.3358453 86.27622703 124.19335938 86.23828125 C126.02082808 86.23241072 127.84830408 86.22844291 129.67578125 86.2265625 C130.52392899 86.21219147 131.37207672 86.19782043 132.2459259 86.18301392 C138.05476589 86.22728292 141.41382327 87.33489219 146.1875 90.6875 C149.87134714 95.01387862 150.85672723 99.00229831 151.5625 104.5 C152.66052521 111.25096456 154.06209446 116.79948166 159.1875 121.6875 C165.84613187 126.43709407 173.37020652 128.63084489 181.5 127.3125 C186.98782403 125.78810444 190.77385464 122.84147972 195.13671875 119.27734375 C199.20121171 116.12639397 202.67922013 115.49530894 207.6875 115.8125 C212.78173803 116.56940682 216.47422799 118.39662284 219.63618469 122.62458801 C223.10543493 126.98807732 226.04755631 129.10099824 231.68773174 129.75112438 C235.43212685 130.01330695 239.16526442 130.10120667 242.91796875 130.13671875 C244.55692442 130.17011088 246.19586589 130.20420643 247.83479309 130.2389679 C251.26366652 130.30022062 254.69097364 130.32719076 258.12036133 130.3347168 C261.61901282 130.34748441 265.10679487 130.42379053 268.6027832 130.56030273 C286.97428078 132.02644488 286.97428078 132.02644488 303.99319458 126.86633301 C308.30466385 122.55316138 310.81301174 117.6981162 313.08938599 112.09671021 C314.88923024 108.14793704 317.544342 104.92524799 320.25 101.5625 C321.245779 100.25794195 322.23841133 98.9509703 323.2265625 97.640625 C323.71543945 96.99287109 324.20431641 96.34511719 324.70800781 95.67773438 C327.75814347 91.5746476 330.67730968 87.37865808 333.61083984 83.19189453 C337.31776394 77.9050888 341.08311256 72.66364757 344.875 67.4375 C350.08194144 60.25604666 355.18076275 53.01001495 360.1875 45.6875 C359.76597656 44.87925781 359.34445312 44.07101563 358.91015625 43.23828125 C358.36230469 42.16964844 357.81445312 41.10101563 357.25 40 C356.43208984 38.41638672 356.43208984 38.41638672 355.59765625 36.80078125 C351.95657151 28.76215372 352.41265608 20.36912904 355.14453125 12.109375 C358.79983264 3.62140922 365.86083323 -3.05408907 374.37109375 -6.58203125 C382.93742816 -8.80381285 392.99712884 -8.48520362 401.01171875 -4.6328125 C408.63030622 -0.00968402 413.93571785 5.94677552 416.7890625 14.48828125 C418.54885065 24.20162171 418.08140329 33.41254382 413.09375 42.05859375 C407.72659848 49.46042361 401.52088081 53.85415292 392.8125 56.375 C386.15829574 57.16716717 379.79867189 56.56527414 373.1875 55.6875 C372.86177002 56.13851074 372.53604004 56.58952148 372.20043945 57.05419922 C371.20890894 58.42708763 370.21737182 59.79997126 369.22583008 61.17285156 C368.06025535 62.78674963 366.89472921 64.4006828 365.72924805 66.01464844 C362.7476944 70.1433835 359.76548358 74.27163896 356.78125 78.3984375 C351.4973911 85.7068503 346.22393682 93.02199319 340.9909668 100.36694336 C337.07647918 105.85601733 333.12093181 111.31517791 329.16430664 116.77392578 C326.35788079 120.65375044 323.57508075 124.54771404 320.83203125 128.47265625 C320.29304199 129.24311279 319.75405273 130.01356934 319.19873047 130.80737305 C318.17722358 132.27117372 317.15911281 133.73735242 316.14501953 135.20629883 C315.68337402 135.86782959 315.22172852 136.52936035 314.74609375 137.2109375 C314.34704834 137.78763184 313.94800293 138.36432617 313.53686523 138.95849609 C309.20357704 144.51093811 309.20357704 144.51093811 305.2008667 145.20648193 C304.03726624 145.21536438 302.87366577 145.22424683 301.67480469 145.23339844 C301.03048492 145.24373611 300.38616516 145.25407379 299.72232056 145.26472473 C297.60108289 145.29412893 295.48080034 145.29565125 293.359375 145.296875 C291.88533715 145.31185844 290.41131607 145.32858595 288.93731689 145.34698486 C285.06411972 145.39065304 281.19114899 145.410656 277.31774902 145.42572021 C273.36273816 145.44529345 269.4079718 145.48726313 265.453125 145.52734375 C257.6979824 145.6026399 249.94294244 145.65293461 242.1875 145.6875 C242.5175 146.6775 242.8475 147.6675 243.1875 148.6875 C244.14367516 156.07062462 243.27933663 160.68197594 238.78515625 166.62109375 C237.99431641 167.64396484 237.99431641 167.64396484 237.1875 168.6875 C233.20330168 174.95547555 231.26156488 180.16427713 232.1875 187.6875 C234.71393124 196.70850721 239.09724924 201.9318725 247.1875 206.6875 C249.90259986 207.32248303 252.44248457 207.82115396 255.1875 208.1875 C262.22658216 209.12692638 266.99389796 210.97436063 271.5625 216.625 C273.1875 220.6875 273.1875 220.6875 273.1875 233.6875 C299.9175 233.6875 326.6475 233.6875 354.1875 233.6875 C355.6725 229.2325 355.6725 229.2325 357.1875 224.6875 C361.20041941 217.16023601 367.70917058 212.58217783 375.4375 209.3125 C385.99951349 207.55216442 395.48634507 207.92118558 404.40625 214.265625 C410.61424065 219.40806501 415.05306283 224.84250723 417.1875 232.6875 C418.2031633 244.08418703 417.29715574 252.84318856 409.9375 261.9375 C404.28244739 268.01637883 397.50296758 272.1006833 389.14453125 273.0234375 C378.50654967 273.15558634 369.77098149 271.18930984 361.91015625 263.68359375 C357.67736963 258.77893623 355.45340235 254.01701173 354.1875 247.6875 C327.4575 247.6875 300.7275 247.6875 273.1875 247.6875 C273.1875 251.9775 273.1875 256.2675 273.1875 260.6875 C270.69311564 266.37781431 268.27209922 269.47770736 262.56640625 271.95703125 C258.76385273 273.12464621 254.88597908 273.62984456 250.95703125 274.203125 C244.89387639 275.26353572 241.14907859 278.100409 237.1875 282.6875 C233.07284899 288.8318614 231.2812801 294.25904957 232.1875 301.6875 C233.93589492 307.98172172 236.82634915 313.03878705 240.91796875 318.09375 C243.346826 321.14290002 243.3226817 323.29159118 243.3125 327.125 C243.31507813 328.09308594 243.31765625 329.06117188 243.3203125 330.05859375 C243.1875 332.6875 243.1875 332.6875 242.1875 335.6875 C243.40446312 335.67964478 243.40446312 335.67964478 244.64601135 335.67163086 C252.31141015 335.6292567 259.97542558 335.62536915 267.64080906 335.66415405 C271.58132827 335.68274959 275.52070894 335.68673227 279.46118164 335.65673828 C283.26790095 335.62830971 287.07272391 335.6390258 290.87934685 335.67630005 C292.32771356 335.68371715 293.77622275 335.67729166 295.22445869 335.65646362 C306.53882184 335.50718819 306.53882184 335.50718819 310.57843018 338.39920044 C312.36949739 340.41290544 313.78496589 342.39131776 315.1875 344.6875 C316.13121264 345.98155504 317.08078132 347.2713835 318.0390625 348.5546875 C318.96783947 349.88764064 319.89218052 351.22369352 320.8125 352.5625 C321.85717302 354.06182533 322.90277756 355.56050196 323.94921875 357.05859375 C324.48208496 357.82284668 325.01495117 358.58709961 325.56396484 359.37451172 C328.21470277 363.15091639 330.91842049 366.88850843 333.625 370.625 C334.16390869 371.36983643 334.70281738 372.11467285 335.25805664 372.88208008 C336.90039449 375.15114129 338.54377088 377.41944647 340.1875 379.6875 C347.1795077 389.33522576 354.13815092 399.00253154 360.9934082 408.74804688 C364.99949674 414.43802998 369.06856672 420.07848203 373.1875 425.6875 C374.321875 425.5225 375.45625 425.3575 376.625 425.1875 C386.74624108 423.97793165 395.92127362 424.35621287 404.5 430.5 C411.75281467 436.4540209 416.60983764 443.03341086 417.57421875 452.47265625 C418.01479599 462.69842956 416.48615763 470.86967683 410 479 C403.84323752 485.55482902 396.64706066 488.691903 387.75585938 489.08227539 C377.83027285 489.28730108 370.39309611 487.34469458 362.77734375 480.53125 C355.75195922 473.08510741 352.83279372 465.36605917 352.96875 455.15234375 C353.61862664 447.82962663 356.50371523 441.91340071 360.1875 435.6875 C351.94460288 423.95436717 343.60201943 412.29803868 335.1875 400.6875 C328.73070487 391.7782723 322.28491569 382.86264544 315.9375 373.875 C315.49075928 373.24263428 315.04401855 372.61026855 314.58374023 371.95874023 C314.13844971 371.32653564 313.69315918 370.69433105 313.234375 370.04296875 C312.77872162 369.4223909 312.32306824 368.80181305 311.85360718 368.16242981 C310.1875 365.6875 310.1875 365.6875 308.51652527 362.47540283 C304.49536932 355.32835422 304.49536932 355.32835422 297.55221558 351.47383118 C293.12592611 350.85501442 288.71110155 350.9566491 284.25390625 351.06640625 C282.60919876 351.06526543 280.9644892 351.05981265 279.31980896 351.05027771 C275.88293033 351.04467017 272.45048321 351.08416859 269.0144043 351.1574707 C264.63352549 351.24828983 260.26022164 351.23685276 255.87886143 351.19262791 C252.48509344 351.16801055 249.09304763 351.19279038 245.69947624 351.23252678 C244.08618161 351.2466304 242.47270133 351.24703699 240.85940742 351.23285103 C231.44451422 351.10884086 231.44451422 351.10884086 223.05050659 354.93234253 C220.36832111 357.56183134 220.36832111 357.56183134 218.17173767 360.33677673 C215.33644607 363.69574226 212.50830498 365.11476172 208.1875 365.6875 C202.01838079 365.89841006 198.09528458 364.52837489 193.1875 360.6875 C187.22429509 356.04481832 182.19108154 353.3469833 174.375 353.75 C166.95503526 354.75513982 160.41821039 357.47166906 155.75 363.5 C152.84979611 368.32017128 152.14882692 373.47108423 151.29248047 378.93359375 C150.36371011 384.55699757 149.20877811 387.66622189 145.1875 391.6875 C140.04272615 394.95450917 135.74503604 395.14154632 129.84375 395.12109375 C128.95643188 395.1263356 128.06911377 395.13157745 127.15490723 395.13697815 C125.28573652 395.143379 123.41652543 395.14208653 121.54736328 395.13354492 C118.69620796 395.12502602 115.84705193 395.15383679 112.99609375 395.18554688 C111.17447976 395.18715894 109.35286225 395.18658125 107.53125 395.18359375 C106.68421509 395.19482773 105.83718018 395.20606171 104.96447754 395.21763611 C98.31575405 395.13977232 94.67907345 393.15351885 89.90234375 388.42578125 C87.76492094 385.01272114 87.26431509 381.78745201 86.75 377.875 C85.34541594 369.22854864 83.15262711 363.86927638 76.3125 358.3125 C70.01733499 354.01021777 64.37786801 353.21674772 56.90234375 354.078125 C51.53610085 355.2826342 47.73459557 358.36680866 43.625 361.875 C39.32500066 365.07243541 35.12912741 365.9651375 29.875 365.375 C26.1875 364.6875 26.1875 364.6875 24.1875 363.6875 C24.24623291 364.24058838 24.30496582 364.79367676 24.36547852 365.36352539 C26.08002133 386.02762039 18.4229995 401.73291817 9.82164001 419.93017578 C5.77611054 428.48993 2.01635292 437.16467912 -1.7272644 445.85971069 C-3.4835755 449.93037566 -5.25894096 453.99267676 -7.03515625 458.0546875 C-7.52961998 459.18589272 -7.52961998 459.18589272 -8.03407288 460.33995056 C-10.7572269 466.56685168 -13.48477068 472.79164049 -16.25 479 C-16.59740234 479.78785889 -16.94480469 480.57571777 -17.30273438 481.38745117 C-18.57839114 484.22829654 -19.5908022 486.4658022 -21.8125 488.6875 C-27.38871951 489.22713415 -27.38871951 489.22713415 -29.8125 488.6875 C-33.01860036 485.91567942 -34.72915595 483.24972098 -36.44921875 479.40234375 C-36.93519531 478.33242188 -37.42117187 477.2625 -37.921875 476.16015625 C-38.44265625 474.99355469 -38.9634375 473.82695312 -39.5 472.625 C-40.654338 470.07936313 -41.81678663 467.53747074 -42.98046875 464.99609375 C-43.28592621 464.32754364 -43.59138367 463.65899353 -43.90609741 462.97018433 C-47.57254003 454.97689277 -51.44686803 447.0857867 -55.3125 439.1875 C-62.28236159 424.92740003 -69.04845901 410.58540293 -75.66186523 396.15649414 C-76.72630349 393.76545412 -76.72630349 393.76545412 -77.86833537 391.90934134 C-79.0845026 389.04741395 -79.06568804 386.7783045 -79.06976891 383.66904449 C-79.0762178 382.42839186 -79.08266669 381.18773923 -79.089311 379.90949106 C-79.08636861 378.53035854 -79.08323317 377.15122642 -79.07992554 375.77209473 C-79.08366111 374.3087635 -79.08826226 372.84543427 -79.09365618 371.38210821 C-79.10591392 367.35532989 -79.10562244 363.32863447 -79.10326743 359.30184174 C-79.10285994 354.96079726 -79.11389215 350.6197796 -79.12338257 346.27874756 C-79.14001056 337.77016564 -79.145493 329.26161143 -79.14660732 320.75301462 C-79.14755729 313.83482536 -79.15166503 306.91664524 -79.15800858 299.99845886 C-79.1756287 280.38271465 -79.18484666 260.76699235 -79.18334763 241.15124017 C-79.18326772 240.09328404 -79.1831878 239.03532791 -79.18310547 237.9453125 C-79.18302371 236.88606337 -79.18294195 235.82681424 -79.18285771 234.73546666 C-79.18204539 217.58162874 -79.20116725 200.42787876 -79.2293822 183.27406627 C-79.25812654 165.65924212 -79.27192153 148.04446083 -79.27019465 130.42961264 C-79.26953111 120.54095341 -79.2750072 110.65238626 -79.29655075 100.76374817 C-79.3147833 92.34079728 -79.31909314 83.91798017 -79.3055319 75.49501806 C-79.29901169 71.19984481 -79.29885048 66.90492805 -79.3162384 62.60977936 C-79.33201719 58.67145448 -79.32905691 54.73358845 -79.31167014 50.79527444 C-79.30861067 49.37661446 -79.31219266 47.95791983 -79.32339029 46.53930074 C-79.43745628 31.05258914 -74.96398227 18.462473 -64.8125 6.6875 C-46.2901351 -9.39771162 -21.22021162 -12.73212697 0 0 Z " fill="#010100" transform="translate(86.8125,15.3125)"/>
<path d="M0 0 C1.02975197 0.01077827 1.02975197 0.01077827 2.08030701 0.02177429 C2.78537888 0.02223251 3.49045074 0.02269073 4.21688843 0.02316284 C5.70726708 0.02618442 7.1976426 0.03406794 8.68797302 0.0464325 C10.97706709 0.06469849 13.26575703 0.06694213 15.55491638 0.06669617 C17.00088344 0.07161098 18.44684775 0.07743915 19.89280701 0.08427429 C20.92559532 0.08594353 20.92559532 0.08594353 21.97924805 0.08764648 C26.80409576 0.13618805 26.80409576 0.13618805 27.92015076 1.25224304 C28.22094915 3.06001163 28.48514242 4.87391085 28.73265076 6.68974304 C30.41336673 17.03166688 33.90681258 26.66626691 42.47093201 33.19755554 C45.22840542 35.02061542 48.01978489 36.66793915 50.92015076 38.25224304 C51.54405701 38.61575867 52.16796326 38.97927429 52.81077576 39.35380554 C61.02252879 43.31172254 73.42152421 42.47067585 81.92015076 39.68974304 C86.57518048 37.73420544 90.22149904 34.92298338 93.94749451 31.54521179 C95.92015076 30.25224304 95.92015076 30.25224304 97.72972107 30.38700867 C102.41238471 32.23669212 105.75211548 36.56689876 109.24900818 40.0801239 C110.73134923 41.56344066 112.23375611 43.02413224 113.73851013 44.48466492 C114.67114685 45.41472351 115.60378357 46.3447821 116.56468201 47.30302429 C117.85402649 48.58173401 117.85402649 48.58173401 119.16941833 49.88627625 C120.92015076 52.25224304 120.92015076 52.25224304 120.77171326 54.44755554 C119.77975061 56.5497883 118.59052656 58.14902972 117.10765076 59.93974304 C109.63054447 69.83114389 108.55937623 79.06712566 109.92015076 91.25224304 C112.56851158 103.00772219 119.38910288 111.413572 129.38890076 117.89677429 C135.75234723 121.3043606 142.84411322 122.32928162 149.92015076 123.25224304 C151.59688725 124.92897954 151.04802893 126.9807938 151.05909729 129.21879578 C151.05606094 130.25628967 151.05606094 130.25628967 151.05296326 131.31474304 C151.05391998 132.02122986 151.05487671 132.72771667 151.05586243 133.45561218 C151.05654408 134.95195098 151.0546908 136.44829271 151.05052185 137.94462585 C151.04517333 140.24254461 151.05046726 142.5402679 151.05686951 144.83818054 C151.05620872 146.28870181 151.05492755 147.73922295 151.05296326 149.18974304 C151.05498749 149.88140564 151.05701172 150.57306824 151.05909729 151.28569031 C151.03510299 156.1372908 151.03510299 156.1372908 149.92015076 157.25224304 C147.61212156 157.69300217 145.29845026 158.10432345 142.98265076 158.50224304 C133.1000967 160.353682 123.29587615 163.9413074 117.33030701 172.54521179 C110.23422716 184.01344841 107.9675206 193.80225284 109.92015076 207.25224304 C111.64047609 213.27602431 114.59471441 219.10081893 119.21702576 223.37724304 C119.77905701 223.99599304 120.34108826 224.61474304 120.92015076 225.25224304 C120.57634923 230.93381331 114.85578441 234.83508195 111.0922699 238.58110046 C109.60895314 240.06344152 108.14826156 241.5658484 106.68772888 243.07060242 C105.75767029 244.00323914 104.82761169 244.93587585 103.86936951 245.89677429 C103.01689636 246.75633728 102.16442322 247.61590027 101.28611755 248.50151062 C98.92015076 250.25224304 98.92015076 250.25224304 96.72044373 250.10380554 C94.63835731 249.118951 93.10996179 247.93469522 91.35765076 246.43974304 C81.72118925 239.11532633 70.69984403 237.65263684 58.92015076 239.25224304 C54.56181133 240.40304053 50.83029421 242.02464617 46.92015076 244.25224304 C46.17249451 244.67505554 45.42483826 245.09786804 44.65452576 245.53349304 C36.33233945 250.99691306 31.02252567 260.65591886 28.92015076 270.25224304 C28.57580453 272.67015243 28.30868782 275.06659195 28.13108826 277.50224304 C27.92015076 279.25224304 27.92015076 279.25224304 26.92015076 280.25224304 C24.56786757 280.36541588 22.24603128 280.41640841 19.89280701 280.42021179 C19.18869186 280.42354019 18.48457672 280.42686859 17.75912476 280.43029785 C16.2669897 280.43536959 14.77484326 280.4377061 13.28269958 280.43754578 C10.99564468 280.43973063 8.70907323 280.45787853 6.42210388 280.47685242 C4.97483991 280.47978658 3.52757364 280.48177122 2.08030701 280.48271179 C1.39380569 280.48989731 0.70730438 280.49708282 0 280.50448608 C-4.85102555 280.48106673 -4.85102555 280.48106673 -7.07984924 278.25224304 C-7.39391564 276.11484673 -7.63192376 273.96600458 -7.82984924 271.81474304 C-9.26016138 261.14745326 -13.46901546 253.73419299 -21.77906799 246.90458679 C-25.04326534 244.56034999 -28.33866997 242.7139804 -32.07984924 241.25224304 C-32.98734924 240.89517273 -33.89484924 240.53810242 -34.82984924 240.17021179 C-38.56277565 239.11583955 -42.04505421 238.90771656 -45.89234924 238.93974304 C-46.60012512 238.94538269 -47.307901 238.95102234 -48.03712463 238.95683289 C-58.31068301 239.19484857 -66.76303375 242.93542754 -74.07984924 250.25224304 C-77.63286777 250.25224304 -79.65076923 249.03007159 -82.20368481 246.72067928 C-85.81762364 242.9689025 -85.930621 239.79661793 -85.84848022 234.75726318 C-85.85854573 233.91586381 -85.86861124 233.07446443 -85.87898177 232.20756811 C-85.90520459 229.39509545 -85.88865738 226.58454014 -85.87208557 223.77201843 C-85.88185541 221.75294673 -85.89416181 219.73388593 -85.90881348 217.71484375 C-85.94043636 212.23536085 -85.93394794 206.75653696 -85.91873384 201.27700734 C-85.90958466 196.70183404 -85.91928475 192.12678154 -85.92907256 187.55161566 C-85.95198359 176.75810859 -85.94439867 165.96492097 -85.91700745 155.1714325 C-85.88920261 144.03762622 -85.90856113 132.90462416 -85.95188314 121.77088553 C-85.98765576 112.20973653 -85.99621079 102.6488355 -85.98249072 93.08762926 C-85.97444423 87.37802702 -85.97624222 81.66887529 -86.00335121 75.95932198 C-86.02748703 70.59012675 -86.01751629 65.22205114 -85.9813633 59.85293388 C-85.97371214 57.88372109 -85.97795886 55.91442033 -85.99503708 53.94526672 C-86.12825032 37.20299535 -86.12825032 37.20299535 -81.67657471 32.5461731 C-79.47469389 30.86216125 -78.40927741 30.29447742 -75.64234924 29.93974304 C-72.49177274 31.55345296 -69.84560685 33.57600541 -67.06422424 35.75614929 C-58.68055921 42.07690462 -49.13757796 41.95278136 -39.07984924 41.25224304 C-28.21035387 39.13696024 -19.66964969 33.50722619 -13.36109924 24.41239929 C-9.52013912 17.9366342 -7.66246554 11.79891605 -7.35328674 4.28349304 C-6.74840766 -0.20989443 -3.86664247 0.01866703 0 0 Z " fill="#FBCB55" transform="translate(195.07984924316406,115.74775695800781)"/>
<path d="M0 0 C24.42 0 48.84 0 74 0 C74 96.36 74 192.72 74 292 C49.58 292 25.16 292 0 292 C0 195.64 0 99.28 0 0 Z " fill="#F56B81" transform="translate(22,101)"/>
<path d="M0 0 C15.4578721 9.7442769 26.01092743 23.53821688 31.09423828 41.1027832 C32.10420114 45.71577816 32.0815359 50.23450908 32 54.9375 C32.00322266 55.87464844 32.00644531 56.81179688 32.00976562 57.77734375 C31.87756046 74.96401536 24.49990359 89.52964041 13 102 C-0.93760193 115.20689271 -17.01905074 119.5649648 -35.71875 119.33642578 C-43.1543944 119.07883721 -49.58818852 118.16421426 -56.3125 114.8125 C-57.68148437 114.17634766 -57.68148437 114.17634766 -59.078125 113.52734375 C-76.71859395 104.68247175 -86.28340647 91.16962503 -93.34765625 73.17578125 C-98.48034359 57.58673552 -95.32582 41.16521943 -88.625 26.625 C-79.71978926 9.92495393 -65.70544394 -0.07352358 -48.11328125 -6.32421875 C-32.19838386 -9.93901045 -14.27738101 -7.7712327 0 0 Z " fill="#F3F5F6" transform="translate(237.3125,200.1875)"/>
<path d="M0 0 C2.48510229 1.9320269 4.86529458 3.93433389 7.22265625 6.01953125 C7.83496094 6.53773438 8.44726562 7.0559375 9.078125 7.58984375 C21.32608566 18.74473698 30.42799725 37.20978407 31.375 53.66699219 C31.47556578 56.66083546 31.52051021 59.64905635 31.53515625 62.64453125 C31.54071533 63.59811523 31.54627441 64.55169922 31.55200195 65.53417969 C31.45033826 75.6310358 29.88081509 84.7593748 25.66015625 93.95703125 C25.31082031 94.72772949 24.96148437 95.49842773 24.6015625 96.29248047 C21.31248837 103.28030508 17.29699803 109.17006799 12.22265625 115.01953125 C11.61035156 115.74269531 10.99804688 116.46585938 10.3671875 117.2109375 C1.90062855 126.43569576 -9.98567888 133.08418877 -21.77734375 137.01953125 C-22.54618896 137.27702148 -23.31503418 137.53451172 -24.10717773 137.79980469 C-31.5975025 140.09695598 -38.65805709 140.56110491 -46.46484375 140.51953125 C-47.69710693 140.51453613 -48.92937012 140.50954102 -50.19897461 140.50439453 C-68.42207095 140.15673991 -82.79401223 133.57556749 -96.77734375 122.01953125 C-97.586875 121.41109375 -98.39640625 120.80265625 -99.23046875 120.17578125 C-112.23952236 109.16198126 -121.90439294 89.81365682 -123.77734375 73.01953125 C-125.07643738 52.23891701 -121.18443967 31.8873901 -107.640625 15.421875 C-105.40250161 12.90256123 -103.10586507 10.45520576 -100.77734375 8.01953125 C-100.22433594 7.39175781 -99.67132813 6.76398438 -99.1015625 6.1171875 C-74.07597544 -21.26813234 -28.62485784 -20.41181846 0 0 Z M-70.77734375 4.01953125 C-71.69128906 4.44363281 -72.60523438 4.86773437 -73.546875 5.3046875 C-90.36068088 13.74686416 -101.32269376 27.30226808 -107.8125 44.8125 C-112.8321264 61.73914717 -109.88053895 78.43181706 -101.96484375 93.89453125 C-92.63840241 109.66684217 -79.77416286 119.02066728 -62.60546875 125.15234375 C-45.96315744 128.92233672 -28.2669316 126.48175726 -13.40234375 118.26953125 C1.3721354 108.56058781 13.0110278 93.96943552 16.77734375 76.4375 C19.15209777 58.2102213 17.39040773 41.16310355 6.22265625 26.01953125 C-4.42565458 12.69404587 -18.45469374 2.21433821 -35.77734375 0.01953125 C-47.72917561 -0.8152645 -59.79440622 -1.37943191 -70.77734375 4.01953125 Z " fill="#040403" transform="translate(251.77734375,192.98046875)"/>
<path d="M0 0 C10.37335712 7.43376818 14.31858704 14.72862348 18 27 C18 37.89 18 48.78 18 60 C-6.42 60 -30.84 60 -56 60 C-56 17.50579151 -56 17.50579151 -46 6 C-32.83796749 -6.37138038 -16.03900864 -8.64257358 0 0 Z " fill="#616A75" transform="translate(78,27)"/>
<path d="M0 0 C21.78 0 43.56 0 66 0 C63.74994673 6.75015981 63.74994673 6.75015981 62.38696289 9.86450195 C62.08189819 10.56498657 61.7768335 11.26547119 61.46252441 11.98718262 C61.13586792 12.73004517 60.80921143 13.47290771 60.47265625 14.23828125 C60.12755005 15.02875854 59.78244385 15.81923584 59.42687988 16.63366699 C58.30807878 19.19445058 57.18549387 21.75355263 56.0625 24.3125 C55.29209083 26.07179502 54.52182784 27.83115406 53.75170898 29.59057617 C52.21859031 33.09220784 50.68389251 36.59314229 49.1484375 40.09375 C47.52740407 43.79188963 45.91436385 47.49338351 44.30836487 51.19807434 C43.06279491 54.0708768 41.81206065 56.94143156 40.5625 59.8125 C40.12107666 60.83577393 39.67965332 61.85904785 39.22485352 62.91333008 C38.82194092 63.83525146 38.41902832 64.75717285 38.00390625 65.70703125 C37.66174072 66.4956958 37.3195752 67.28436035 36.96704102 68.09692383 C36 70 36 70 34 72 C28.62677295 61.30964688 23.33467178 50.58345835 18.125 39.8125 C17.78227051 39.10431122 17.43954102 38.39612244 17.08642578 37.66647339 C15.03436826 33.42564586 12.98495167 29.18355002 10.93713379 24.94067383 C10.05769732 23.11948313 9.17684739 21.29897518 8.29589844 19.47851562 C6.85965946 16.50854314 5.428638 13.53613446 4 10.5625 C3.58508301 9.70567627 3.17016602 8.84885254 2.74267578 7.96606445 C0 2.23088856 0 2.23088856 0 0 Z " fill="#EBC4A1" transform="translate(26,407)"/>
<path d="M0 0 C4.74828014 3.08804233 7.58991414 7.33209605 8.765625 12.86328125 C9.16736018 18.73409302 7.67930383 22.8409569 4.1484375 27.515625 C0.36647687 31.3442765 -3.74022301 33.24876811 -9.1171875 33.5859375 C-15.06653216 33.20533969 -18.88527046 31.15065655 -23.2265625 27.0390625 C-27.17941891 22.51204818 -27.43575358 18.11739225 -27.171875 12.24609375 C-26.40670066 7.1520164 -23.981575 4.57433846 -20.3125 1.1875 C-13.70926534 -3.32202611 -7.23457513 -3.5541035 0 0 Z " fill="#63CFEB" transform="translate(481.75,240.5625)"/>
<path d="M0 0 C4.41854291 3.11306432 8.02390999 6.75922996 9.75 11.9375 C10.56856292 17.86623431 9.85384614 22.23265991 6.359375 27.140625 C3.01300927 30.87685859 -0.55097911 33.46174039 -5.5546875 34.34375 C-10.47706159 34.5426338 -14.12718064 33.77766445 -18.25 30.9375 C-22.81870682 26.40096717 -25.3559866 22.84082824 -25.625 16.25 C-25.55178107 10.67722596 -23.98433578 7.05095616 -20.25 2.9375 C-14.45728057 -2.26712608 -7.14982488 -2.33744275 0 0 Z " fill="#64D0ED" transform="translate(480.25,456.0625)"/>
<path d="M0 0 C5.12234195 2.89650456 8.67150779 6.6432571 10.80859375 12.1640625 C11.80121301 17.79526793 11.08916739 22.40193948 7.80859375 27.1640625 C3.27206092 31.73276932 -0.28807801 34.2700491 -6.87890625 34.5390625 C-12.43415089 34.45796404 -16.15017805 32.99112423 -20.19140625 29.1640625 C-23.92545806 24.4068383 -24.8481996 19.45193112 -24.57421875 13.48828125 C-23.55440256 7.29654013 -18.94892703 3.70689712 -14.19140625 0.1640625 C-9.43172906 -1.42249656 -4.76438915 -1.81743187 0 0 Z " fill="#64D0ED" transform="translate(479.19140625,22.8359375)"/>
</svg>
