<?xml version="1.0" encoding="UTF-8"?>
<svg version="1.1" xmlns="http://www.w3.org/2000/svg" width="512" height="512">
<path d="M0 0 C0.74845184 0.00054382 1.49690369 0.00108765 2.26803589 0.00164795 C14.38668279 0.04205152 25.82413511 0.89053794 37.5 4.375 C38.22880371 4.58930664 38.95760742 4.80361328 39.70849609 5.02441406 C71.66482247 14.72783781 98.52312138 35.35020824 116.5 63.375 C117.11617187 64.32890625 117.73234375 65.2828125 118.3671875 66.265625 C135.84875044 94.70230072 141.83366449 132.78303607 134.59375 165.4296875 C134.23840356 166.74731753 133.87309403 168.06228494 133.5 169.375 C133.27957031 170.17196289 133.05914062 170.96892578 132.83203125 171.79003906 C127.80872127 189.4314253 120.14309399 206.09336313 108.5 220.375 C107.86288086 221.17599121 107.86288086 221.17599121 107.21289062 221.99316406 C101.73227628 228.85359457 95.97903169 235.1465542 89.3125 240.875 C88.72428467 241.3805542 88.13606934 241.8861084 87.5300293 242.40698242 C84.23414027 245.15656086 81.03880913 247.19323224 77.1875 249.125 C74.96335304 250.30683248 74.96335304 250.30683248 73.5 252.375 C72.91877466 255.88414797 72.6485612 259.09563937 72.74682617 262.63964844 C72.82233682 266.00366774 72.74653509 267.99836567 70.87890625 270.8515625 C66.42488925 273.70388866 61.63788506 272.59838631 56.5 272.375 C56.5 277.655 56.5 282.935 56.5 288.375 C58.3975 288.2925 60.295 288.21 62.25 288.125 C67.84109091 287.88190909 67.84109091 287.88190909 70.859375 290.140625 C72.59023982 292.49789805 73.04492653 293.49970206 73 296.375 C73.0103125 297.035 73.020625 297.695 73.03125 298.375 C72.24799158 301.3237376 70.86485285 302.47841544 68.5 304.375 C65.484375 304.765625 65.484375 304.765625 62.25 304.625 C61.17234375 304.58890625 60.0946875 304.5528125 58.984375 304.515625 C58.16453125 304.46921875 57.3446875 304.4228125 56.5 304.375 C56.52094727 305.20225586 56.54189453 306.02951172 56.56347656 306.88183594 C56.64661619 310.6294337 56.69865531 314.37683749 56.75 318.125 C56.78351563 319.42695313 56.81703125 320.72890625 56.8515625 322.0703125 C56.86445313 323.32070313 56.87734375 324.57109375 56.890625 325.859375 C56.91157227 327.01147461 56.93251953 328.16357422 56.95410156 329.35058594 C56.40252273 333.0242196 55.43245048 334.16507568 52.5 336.375 C49.484375 336.984375 49.484375 336.984375 46.25 337.125 C45.17234375 337.18171875 44.0946875 337.2384375 42.984375 337.296875 C42.16453125 337.32265625 41.3446875 337.3484375 40.5 337.375 C40.29246094 338.06464844 40.08492187 338.75429688 39.87109375 339.46484375 C35.97951339 351.33497797 29.07501807 359.63137298 18.11328125 365.6953125 C8.3074692 369.99004795 -4.41251215 370.11017538 -14.5625 366.8125 C-24.27502878 362.55862063 -32.54014231 355.14414199 -36.8203125 345.35546875 C-37.79072245 342.71228919 -38.68873749 340.07081022 -39.5 337.375 C-40.31984375 337.34921875 -41.1396875 337.3234375 -41.984375 337.296875 C-43.06203125 337.24015625 -44.1396875 337.1834375 -45.25 337.125 C-46.31734375 337.07859375 -47.3846875 337.0321875 -48.484375 336.984375 C-52.1817687 336.23723327 -53.20631636 335.33482794 -55.5 332.375 C-55.95410156 329.35058594 -55.95410156 329.35058594 -55.890625 325.859375 C-55.87773437 324.60898437 -55.86484375 323.35859375 -55.8515625 322.0703125 C-55.81804687 320.76835937 -55.78453125 319.46640625 -55.75 318.125 C-55.73195313 316.80757813 -55.71390625 315.49015625 -55.6953125 314.1328125 C-55.64816271 310.87947692 -55.58236044 307.62760375 -55.5 304.375 C-56.31984375 304.42140625 -57.1396875 304.4678125 -57.984375 304.515625 C-59.06203125 304.55171875 -60.1396875 304.5878125 -61.25 304.625 C-62.31734375 304.67140625 -63.3846875 304.7178125 -64.484375 304.765625 C-68.16843728 304.28841486 -69.2520782 303.26174857 -71.5 300.375 C-72.03125 298.375 -72.03125 298.375 -72 296.375 C-72.0103125 295.715 -72.020625 295.055 -72.03125 294.375 C-71.23922269 291.39325014 -69.95326814 290.21088941 -67.5 288.375 C-63.43404512 287.84832191 -59.61858117 288.19593125 -55.5 288.375 C-55.5 283.095 -55.5 277.815 -55.5 272.375 C-57.3975 272.4575 -59.295 272.54 -61.25 272.625 C-64.87718221 272.78270357 -66.80911032 272.81825492 -69.88671875 270.84375 C-72.10055709 267.45598769 -71.71435404 264.50780489 -71.5625 260.625 C-71.6242652 256.46583353 -71.74255516 253.28275491 -74.5078125 249.96875 C-76.35786605 248.69582686 -78.25759939 247.49323781 -80.19140625 246.3515625 C-84.02141442 244.06350567 -87.26374254 241.41639854 -90.625 238.5 C-91.22231934 237.98332764 -91.81963867 237.46665527 -92.43505859 236.93432617 C-118.78712067 213.80274895 -133.8932563 179.51005235 -136.3125 144.8125 C-137.59949264 119.34505605 -132.10355158 94.89717539 -120.5 72.25 C-120.17990967 71.6096582 -119.85981934 70.96931641 -119.5300293 70.30957031 C-117.43869386 66.38125818 -115.65415983 64.06880922 -111.5 62.375 C-110.49839844 62.41238281 -109.49679688 62.44976562 -108.46484375 62.48828125 C-105.34605382 62.68120147 -105.34605382 62.68120147 -103.12890625 60.29296875 C-102.44699219 59.39191406 -101.76507813 58.49085938 -101.0625 57.5625 C-100.01255859 56.22251953 -100.01255859 56.22251953 -98.94140625 54.85546875 C-98.46574219 54.03691406 -97.99007812 53.21835938 -97.5 52.375 C-97.83 51.385 -98.16 50.395 -98.5 49.375 C-98.98371102 45.02160085 -98.98792815 43.06992797 -96.4375 39.4375 C-92.80507203 36.88707185 -90.85339915 36.89128898 -86.5 37.375 C-85.51 37.705 -84.52 38.035 -83.5 38.375 C-79.648183 36.2706527 -76.43968069 33.62718729 -73.5 30.375 C-72.77375346 27.88385266 -72.65627522 26.02874363 -72.85546875 23.453125 C-72.5 21.375 -72.5 21.375 -70.5234375 19.3828125 C-60.65767291 12.83112904 -49.36142419 8.33422215 -38.0625 4.9375 C-36.89448853 4.58582764 -36.89448853 4.58582764 -35.70288086 4.22705078 C-23.87019999 0.86333249 -12.2365706 -0.03351326 0 0 Z " fill="#000000" transform="translate(255.5,119.625)"/>
<path d="M0 0 C0.97694824 0.00676758 1.95389648 0.01353516 2.96044922 0.02050781 C3.6979541 0.02920898 4.43545898 0.03791016 5.1953125 0.046875 C5.2250415 1.87847168 5.2250415 1.87847168 5.25537109 3.74707031 C5.33147373 8.27966854 5.42018411 12.8119477 5.51269531 17.34423828 C5.55096577 19.3054372 5.58582204 21.26670584 5.6171875 23.22802734 C5.6628799 26.04810497 5.7208675 28.86770338 5.78125 31.6875 C5.79280121 32.56367981 5.80435242 33.43985962 5.81625366 34.34259033 C5.83612335 35.16313904 5.85599304 35.98368774 5.87646484 36.82910156 C5.88978851 37.54857971 5.90311218 38.26805786 5.9168396 39.00933838 C6.24200764 41.38853503 6.94138596 43.00567333 8.1953125 45.046875 C10.58005146 46.23924448 12.14758465 46.20200683 14.80859375 46.2578125 C16.1862793 46.30035156 16.1862793 46.30035156 17.59179688 46.34375 C19.52390232 46.39551438 21.45622128 46.43987869 23.38867188 46.4765625 C32.28683161 46.77503327 32.28683161 46.77503327 36.1953125 50.046875 C37.59988987 52.85602974 37.44426407 54.93498034 37.1953125 58.046875 C35.41546845 61.1827907 34.67223043 61.88790236 31.1953125 63.046875 C29.61546256 63.148513 28.03219356 63.20151748 26.44921875 63.22265625 C25.52947266 63.24650391 24.60972656 63.27035156 23.66210938 63.29492188 C21.73004074 63.33779899 19.79767961 63.36909951 17.86523438 63.38867188 C16.94419922 63.41638672 16.02316406 63.44410156 15.07421875 63.47265625 C13.81460327 63.49453003 13.81460327 63.49453003 12.52954102 63.5168457 C9.16770433 64.28021224 8.13167432 65.16838138 6.1953125 68.046875 C5.58737799 71.30885288 5.59035987 74.53255337 5.5859375 77.84375 C5.56940125 78.79252014 5.55286499 79.74129028 5.53582764 80.71881104 C5.48729811 83.74489788 5.46596555 86.77048201 5.4453125 89.796875 C5.41715699 91.85028578 5.38723015 93.90367308 5.35546875 95.95703125 C5.27820648 100.98721152 5.23773305 106.01579753 5.1953125 111.046875 C-5.3646875 111.046875 -15.9246875 111.046875 -26.8046875 111.046875 C-27.1346875 106.426875 -27.4646875 101.806875 -27.8046875 97.046875 C-30.4988896 89.39534104 -35.37024841 84.31336609 -42.6171875 80.609375 C-49.72239378 79.35551507 -56.53851351 78.93567152 -62.953125 82.64453125 C-68.21363717 86.62875882 -71.36454069 90.94650797 -73.8046875 97.046875 C-74.1346875 101.666875 -74.4646875 106.286875 -74.8046875 111.046875 C-85.0346875 111.046875 -95.2646875 111.046875 -105.8046875 111.046875 C-105.8046875 104.24104087 -105.68685534 98.79488035 -104.1796875 92.359375 C-104.0029248 91.58899902 -103.82616211 90.81862305 -103.64404297 90.02490234 C-101.20286013 79.92983222 -97.26430109 70.70481827 -92.3671875 61.546875 C-90.46460852 57.85100356 -89.8046875 56.29374141 -89.8046875 52.046875 C-90.6392137 49.54329639 -91.59840742 47.37901648 -92.8046875 45.046875 C-92.21558594 44.35980469 -91.62648437 43.67273438 -91.01953125 42.96484375 C-90.26800781 42.06378906 -89.51648438 41.16273438 -88.7421875 40.234375 C-87.98808594 39.34105469 -87.23398438 38.44773438 -86.45703125 37.52734375 C-85.91175781 36.70878906 -85.36648437 35.89023438 -84.8046875 35.046875 C-85.1346875 34.056875 -85.4646875 33.066875 -85.8046875 32.046875 C-86.28839852 27.69347585 -86.29261565 25.74180297 -83.7421875 22.109375 C-80.10975953 19.55894685 -78.15808665 19.56316398 -73.8046875 20.046875 C-72.8146875 20.376875 -71.8246875 20.706875 -70.8046875 21.046875 C-68.21240761 19.38761925 -68.21240761 19.38761925 -65.6171875 17.109375 C-64.71613281 16.35785156 -63.81507813 15.60632813 -62.88671875 14.83203125 C-62.19964844 14.24292969 -61.51257813 13.65382812 -60.8046875 13.046875 C-60.2890625 13.35625 -59.7734375 13.665625 -59.2421875 13.984375 C-55.1884905 15.75137113 -51.80806714 16.73587915 -47.48339844 15.24853516 C-44.83590927 14.02928311 -42.25912622 12.71655732 -39.6796875 11.359375 C-31.81354569 7.41708996 -24.38623687 4.12286163 -15.8046875 2.046875 C-14.50724609 1.71429688 -14.50724609 1.71429688 -13.18359375 1.375 C-8.73582696 0.34805853 -4.56714173 -0.04120729 0 0 Z " fill="#F1F1F1" transform="translate(242.8046875,136.953125)"/>
<path d="M0 0 C10.56 0 21.12 0 32 0 C32.495 6.435 32.495 6.435 33 13 C35.65379527 21.27984124 39.96836125 25.95453444 47.375 30.4375 C55.52244547 32.18338117 62.87733274 31.26845028 69.91015625 26.78125 C74.96873488 22.91482047 77.01518838 19.03077376 79 13 C79.495 6.565 79.495 6.565 80 0 C90.23 0 100.46 0 111 0 C111 25.00369134 100.48290514 50.32572596 84 69 C83.27941406 69.84046875 82.55882812 70.6809375 81.81640625 71.546875 C74.10295958 80.36988159 65.92247027 87.32580038 56.05224609 93.58789062 C52.99409992 95.54826097 51.04246531 96.93630204 49 100 C48.505 105.94 48.505 105.94 48 112 C32.16 112 16.32 112 0 112 C-0.375 90.6875 -0.375 90.6875 -0.47802734 83.9675293 C-0.51323023 82.21141024 -0.54915114 80.45530536 -0.5859375 78.69921875 C-0.59729736 77.78611938 -0.60865723 76.87302002 -0.62036133 75.93225098 C-0.65045288 74.62326843 -0.65045288 74.62326843 -0.68115234 73.2878418 C-0.69447601 72.53061325 -0.70779968 71.7733847 -0.7215271 70.99320984 C-0.89708612 68.68394812 -0.89708612 68.68394812 -3 66 C-5.87629575 65.04123475 -7.72268272 64.87673176 -10.7109375 64.859375 C-12.08378906 64.83037109 -12.08378906 64.83037109 -13.484375 64.80078125 C-15.40343629 64.76706801 -17.32283188 64.74870868 -19.2421875 64.74609375 C-23.93958668 64.62074181 -26.28398251 64.54059321 -30.125 61.640625 C-32 59 -32 59 -32.625 56 C-31.75313403 51.81504334 -30.41529545 50.57750082 -27 48 C-23.4809017 47.29692277 -20.01758641 47.30024782 -16.4375 47.3125 C-14.5611085 47.29587213 -12.68476612 47.27142917 -10.80859375 47.23828125 C-9.56807251 47.2388855 -9.56807251 47.2388855 -8.30249023 47.23950195 C-5.7301867 46.97193438 -4.15076147 46.43135754 -2 45 C-1.09683675 42.29051025 -0.853425 40.59864666 -0.79467773 37.80395508 C-0.77473251 36.96331009 -0.75478729 36.1226651 -0.73423767 35.25654602 C-0.70916893 33.90172371 -0.70916893 33.90172371 -0.68359375 32.51953125 C-0.66281265 31.59154221 -0.64203156 30.66355316 -0.62062073 29.70744324 C-0.55522677 26.7425376 -0.49628738 23.77754328 -0.4375 20.8125 C-0.39430513 18.8027252 -0.35069053 16.79295937 -0.30664062 14.78320312 C-0.19876571 9.85555833 -0.09961668 4.92784639 0 0 Z " fill="#FEC842" transform="translate(264,264)"/>
<path d="M0 0 C4.18495666 0.87186597 5.42249918 2.20970455 8 5.625 C8.70307723 9.1440983 8.69975218 12.60741359 8.6875 16.1875 C8.70412787 18.0638915 8.72857083 19.94023388 8.76171875 21.81640625 C8.76131592 22.64342041 8.76091309 23.47043457 8.76049805 24.32250977 C9.02551781 26.87031951 9.63900257 28.4648244 11 30.625 C13.2831244 31.7665622 14.63479305 31.77834372 17.17431641 31.83032227 C18.03505768 31.85026749 18.89579895 31.87021271 19.78262329 31.89076233 C20.71287323 31.90747482 21.64312317 31.92418732 22.6015625 31.94140625 C24.02896255 31.9725779 24.02896255 31.9725779 25.48519897 32.00437927 C28.53172432 32.06988133 31.57833743 32.1287628 34.625 32.1875 C36.68750916 32.23068459 38.75000937 32.27429886 40.8125 32.31835938 C45.87491127 32.42637379 50.93738701 32.52544234 56 32.625 C56 43.185 56 53.745 56 64.625 C51.38 64.955 46.76 65.285 42 65.625 C34.64507951 68.21476074 29.26201997 72.94261866 25.828125 80.05078125 C23.616074 86.92692091 24.36543801 94.14385754 27.59765625 100.55078125 C31.34125765 106.08797441 35.86259518 109.17003807 42 111.625 C48.93 112.12 48.93 112.12 56 112.625 C56 123.185 56 133.745 56 144.625 C40.16 144.625 24.32 144.625 8 144.625 C7.505 138.685 7.505 138.685 7 132.625 C4.03855419 128.56691862 0.12423406 126.22889977 -4.0625 123.5 C-30.57488073 105.61340382 -47.13003316 78.62792729 -54 47.625 C-54.89721473 42.53113575 -55.03360303 37.77258421 -55 32.625 C-53.77893555 32.60518066 -52.55787109 32.58536133 -51.29980469 32.56494141 C-46.76720646 32.48883877 -42.2349273 32.40012839 -37.70263672 32.30761719 C-35.7414378 32.26934673 -33.78016916 32.23449046 -31.81884766 32.203125 C-28.99877003 32.1574326 -26.17917162 32.099445 -23.359375 32.0390625 C-22.48319519 32.02751129 -21.60701538 32.01596008 -20.70428467 32.00405884 C-19.88373596 31.98418915 -19.06318726 31.96431946 -18.21777344 31.94384766 C-17.49829529 31.93052399 -16.77881714 31.91720032 -16.03753662 31.9034729 C-13.63052454 31.57450329 -12.0372454 30.94727754 -10 29.625 C-9.04123475 26.74870425 -8.87673176 24.90231728 -8.859375 21.9140625 C-8.84003906 20.99882812 -8.82070312 20.08359375 -8.80078125 19.140625 C-8.76706801 17.22156371 -8.74870868 15.30216812 -8.74609375 13.3828125 C-8.62074181 8.68541332 -8.54059321 6.34101749 -5.640625 2.5 C-3 0.625 -3 0.625 0 0 Z " fill="#42B2FE" transform="translate(192,231.375)"/>
<path d="M0 0 C25.4896697 0 49.81770946 10.3308122 69 27 C70.21236328 28.01320312 70.21236328 28.01320312 71.44921875 29.046875 C90.24745165 45.2186672 107.6132071 70.90774203 110.22358704 96.16320801 C110.3783792 98.4221327 110.4990088 100.67952744 110.6015625 102.94140625 C110.64192627 103.72036255 110.68229004 104.49931885 110.72387695 105.30187988 C110.82149059 107.20097502 110.91153727 109.10045661 111 111 C109.74864258 111.0093457 108.49728516 111.01869141 107.20800781 111.02832031 C102.5634405 111.06820482 97.91953665 111.13395941 93.27539062 111.20751953 C91.26571173 111.23573807 89.25592166 111.25694821 87.24609375 111.27099609 C84.35619151 111.29241335 81.4676271 111.33905703 78.578125 111.390625 C77.68007141 111.39185364 76.78201782 111.39308228 75.85675049 111.39434814 C70.83786434 111.50673241 70.83786434 111.50673241 66.43286133 113.73754883 C64.78768516 116.33523968 64.50293948 117.75331582 64.49609375 120.80859375 C64.47740234 121.72060547 64.45871094 122.63261719 64.43945312 123.57226562 C64.43848633 124.99055664 64.43848633 124.99055664 64.4375 126.4375 C64.38223188 137.9727459 64.38223188 137.9727459 61 142 C58.19084526 143.40457737 56.11189466 143.24895157 53 143 C49.8640843 141.22015595 49.15897264 140.47691793 48 137 C47.87563702 135.40899339 47.79907982 133.81397022 47.75390625 132.21875 C47.72103516 131.29449219 47.68816406 130.37023437 47.65429688 129.41796875 C47.5931027 127.4727751 47.53581034 125.52745478 47.48242188 123.58203125 C47.44826172 122.65777344 47.41410156 121.73351562 47.37890625 120.78125 C47.3538501 119.93626953 47.32879395 119.09128906 47.30297852 118.22070312 C47.12597222 115.71539982 47.12597222 115.71539982 45 113 C42.29051025 112.09683675 40.59864666 111.853425 37.80395508 111.79467773 C36.96331009 111.77473251 36.1226651 111.75478729 35.25654602 111.73423767 C34.35333115 111.71752518 33.45011627 111.70081268 32.51953125 111.68359375 C31.12754768 111.6524221 31.12754768 111.6524221 29.70744324 111.62062073 C26.7425376 111.55522677 23.77754328 111.49628738 20.8125 111.4375 C18.8027252 111.39430513 16.79295937 111.35069053 14.78320312 111.30664062 C9.85555833 111.19876571 4.92784639 111.09961668 0 111 C0 100.44 0 89.88 0 79 C7.5625 78.25 7.5625 78.25 9.90063477 78.04394531 C16.51574259 77.29872353 21.02627431 75.0185831 25.75 70.1875 C30.61640834 63.29342151 32.0441674 57.3173334 31 49 C29.1505255 42.33491263 24.60927549 37.83176314 19 34 C12.70774937 31.33789397 7.10270158 31.5918918 0 31 C0 20.77 0 10.54 0 0 Z " fill="#F25050" transform="translate(264,137)"/>
<path d="M0 0 C26.4 0 52.8 0 80 0 C80 5.28 80 10.56 80 16 C53.6 16 27.2 16 0 16 C0 10.72 0 5.44 0 0 Z " fill="#F45151" transform="translate(216,424)"/>
<path d="M0 0 C26.4 0 52.8 0 80 0 C80 5.28 80 10.56 80 16 C53.6 16 27.2 16 0 16 C0 10.72 0 5.44 0 0 Z " fill="#F45151" transform="translate(216,392)"/>
<path d="M0 0 C4.16375252 1.75707649 7.99097663 4.01153829 11.875 6.3125 C12.96893066 6.94462402 14.06286133 7.57674805 15.18994141 8.22802734 C18.47141064 10.13322642 21.73679178 12.06372907 25 14 C25.94617188 14.55381348 26.89234375 15.10762695 27.8671875 15.67822266 C30.37737492 17.14817295 32.87859454 18.63178644 35.375 20.125 C36.11089355 20.56110596 36.84678711 20.99721191 37.60498047 21.4465332 C41.07843977 23.56920278 43.96003615 25.3523323 46 29 C46.54930341 32.68818005 46.23375591 34.53248818 44.5625 37.875 C41.5261467 40.39295152 39.50595371 40.56534162 35.61987305 40.46386719 C30.35785749 39.53218984 26.09009011 36.49184294 21.625 33.6875 C19.51085827 32.40291877 17.39626853 31.1190746 15.28125 29.8359375 C14.23195313 29.19108398 13.18265625 28.54623047 12.1015625 27.88183594 C9.18695297 26.11343148 6.24775385 24.40612718 3.28125 22.7265625 C2.40774902 22.23196533 1.53424805 21.73736816 0.63427734 21.2277832 C-1.00413152 20.30368745 -2.64435715 19.38280336 -4.28662109 18.46557617 C-5.01445801 18.05025635 -5.74229492 17.63493652 -6.4921875 17.20703125 C-7.12495605 16.8510083 -7.75772461 16.49498535 -8.40966797 16.12817383 C-10 15 -10 15 -12 12 C-12.65753425 5.09589041 -12.65753425 5.09589041 -10.5 1.5 C-6.95020311 -0.62987813 -3.97819756 -0.723236 0 0 Z " fill="#000000" transform="translate(66,136)"/>
<path d="M0 0 C3.06862356 2.54471222 3.84823663 4.08941981 4.5 8 C3.86937412 11.78375525 2.59062335 13.18958089 0 16 C-2.80224609 17.90942383 -2.80224609 17.90942383 -6.0234375 19.70703125 C-6.60606354 20.03611984 -7.18868958 20.36520844 -7.78897095 20.70426941 C-9.6456681 21.75017118 -11.50993772 22.78160366 -13.375 23.8125 C-15.19383352 24.83136783 -17.0110237 25.85312478 -18.82818604 26.87496948 C-20.04301072 27.55541877 -21.2599458 28.23211376 -22.47894287 28.90505981 C-25.61375937 30.63822609 -28.70501471 32.41523296 -31.75488281 34.29443359 C-32.67595322 34.85151253 -32.67595322 34.85151253 -33.6156311 35.41984558 C-35.30786193 36.4472417 -36.98952667 37.49198394 -38.67041016 38.5378418 C-42.88497411 40.38862809 -45.4331431 40.38022404 -50 40 C-52.5 38.5 -52.5 38.5 -54 36 C-54.77403846 30.58173077 -54.77403846 30.58173077 -54 28 C-49.67957178 22.3806195 -43.25289812 19.56279312 -37.125 16.25 C-30.42244267 12.58713152 -23.76862888 8.93610648 -17.3425293 4.80419922 C-11.50823614 1.07031345 -7.08581842 -1.62625341 0 0 Z " fill="#000000" transform="translate(108,336)"/>
<path d="M0 0 C2.5 1.5 2.5 1.5 4 4 C5.14169369 11.98272227 1.67497593 17.14414063 -2.3125 23.875 C-2.94462402 24.96893066 -3.57674805 26.06286133 -4.22802734 27.18994141 C-6.13322642 30.47141064 -8.06372907 33.73679178 -10 37 C-10.55381348 37.94617188 -11.10762695 38.89234375 -11.67822266 39.8671875 C-13.14817295 42.37737492 -14.63178644 44.87859454 -16.125 47.375 C-16.56110596 48.11089355 -16.99721191 48.84678711 -17.4465332 49.60498047 C-19.56920278 53.07843977 -21.3523323 55.96003615 -25 58 C-28.68818005 58.54930341 -30.53248818 58.23375591 -33.875 56.5625 C-36.39295152 53.5261467 -36.56534162 51.50595371 -36.46386719 47.61987305 C-35.53218984 42.35785749 -32.49184294 38.09009011 -29.6875 33.625 C-28.40291877 31.51085827 -27.1190746 29.39626853 -25.8359375 27.28125 C-24.86865723 25.70730469 -24.86865723 25.70730469 -23.88183594 24.1015625 C-22.11343148 21.18695297 -20.40612718 18.24775385 -18.7265625 15.28125 C-18.23196533 14.40774902 -17.73736816 13.53424805 -17.2277832 12.63427734 C-16.30368745 10.99586848 -15.38280336 9.35564285 -14.46557617 7.71337891 C-14.05025635 6.98554199 -13.63493652 6.25770508 -13.20703125 5.5078125 C-12.8510083 4.87504395 -12.49498535 4.24227539 -12.12817383 3.59033203 C-9.07867515 -0.70839863 -4.79603697 -0.75269795 0 0 Z " fill="#000000" transform="translate(372,54)"/>
<path d="M0 0 C5.31345835 1.59304803 7.95438093 6.75802222 10.43408203 11.35180664 C11.01005127 12.44803345 11.01005127 12.44803345 11.59765625 13.56640625 C14.47140233 18.93494904 17.4202058 24.21428849 20.63671875 29.38671875 C21.23162109 30.35230713 21.82652344 31.31789551 22.43945312 32.31274414 C23.60485282 34.19407326 24.78529123 36.06619125 25.98242188 37.92749023 C29.34394704 43.40109281 31.5533035 48.11797464 30.09765625 54.62890625 C27.55294403 57.69752981 26.00823644 58.47714288 22.09765625 59.12890625 C18.313901 58.49828037 16.90807536 57.2195296 14.09765625 54.62890625 C12.18823242 51.82666016 12.18823242 51.82666016 10.390625 48.60546875 C10.06153641 48.02284271 9.73244781 47.44021667 9.39338684 46.8399353 C8.34748507 44.98323815 7.31605259 43.11896853 6.28515625 41.25390625 C5.26628842 39.43507273 4.24453147 37.61788255 3.22268677 35.80072021 C2.54223748 34.58589553 1.86554249 33.36896045 1.19259644 32.14996338 C-0.54056984 29.01514688 -2.31757671 25.92389154 -4.19677734 22.87402344 C-4.5681633 22.2599765 -4.93954926 21.64592957 -5.32218933 21.01327515 C-6.34958545 19.32104432 -7.39432769 17.63937958 -8.44018555 15.95849609 C-10.29097184 11.74393214 -10.28256779 9.19576315 -9.90234375 4.62890625 C-7.4168839 0.48647317 -4.70555012 0.1590345 0 0 Z " fill="#000000" transform="translate(145.90234375,53.37109375)"/>
<path d="M0 0 C5.26201556 0.93167734 9.52978294 3.97202424 13.99487305 6.77636719 C16.10901478 8.06094842 18.22360452 9.34479259 20.33862305 10.62792969 C21.91256836 11.59520996 21.91256836 11.59520996 23.51831055 12.58203125 C26.43292007 14.35043571 29.37211919 16.05774001 32.33862305 17.73730469 C33.64887451 18.47920044 33.64887451 18.47920044 34.9855957 19.23608398 C36.62400457 20.16017974 38.2642302 21.08106383 39.90649414 21.99829102 C40.63433105 22.41361084 41.36216797 22.82893066 42.11206055 23.25683594 C42.7448291 23.61285889 43.37759766 23.96888184 44.02954102 24.33569336 C45.61987305 25.46386719 45.61987305 25.46386719 47.61987305 28.46386719 C48.27740729 35.36797678 48.27740729 35.36797678 46.11987305 38.96386719 C42.57007616 41.09374532 39.5980706 41.18710318 35.61987305 40.46386719 C31.45612053 38.70679069 27.62889642 36.4523289 23.74487305 34.15136719 C22.10397705 33.20318115 22.10397705 33.20318115 20.42993164 32.23583984 C17.14846241 30.33064077 13.88308127 28.40013811 10.61987305 26.46386719 C9.67370117 25.91005371 8.7275293 25.35624023 7.75268555 24.78564453 C5.24249813 23.31569424 2.74127851 21.83208075 0.24487305 20.33886719 C-0.49102051 19.90276123 -1.22691406 19.46665527 -1.98510742 19.01733398 C-5.45856673 16.89466441 -8.3401631 15.11153489 -10.38012695 11.46386719 C-10.92943036 7.77568714 -10.61388286 5.93137901 -8.94262695 2.58886719 C-5.90627365 0.07091567 -3.88608066 -0.10147444 0 0 Z " fill="#000000" transform="translate(410.380126953125,335.5361328125)"/>
<path d="M0 0 C2.5 1.5 2.5 1.5 4 4 C4.77403846 9.41826923 4.77403846 9.41826923 4 12 C-0.32042822 17.6193805 -6.74710188 20.43720688 -12.875 23.75 C-19.57755733 27.41286848 -26.23137112 31.06389352 -32.6574707 35.19580078 C-41.01030342 40.54152518 -41.01030342 40.54152518 -46.1875 40.875 C-50 40 -50 40 -52.5625 37.875 C-54.25419769 34.49160462 -54.62195931 32.73175586 -54 29 C-51.21659178 24.86923823 -48.29732166 22.70419732 -43.9765625 20.29296875 C-43.39393646 19.96388016 -42.81131042 19.63479156 -42.21102905 19.29573059 C-40.3543319 18.24982882 -38.49006228 17.21839634 -36.625 16.1875 C-34.80616648 15.16863217 -32.9889763 14.14687522 -31.17181396 13.12503052 C-29.95698928 12.44458123 -28.7400542 11.76788624 -27.52105713 11.09494019 C-24.38624063 9.36177391 -21.29498529 7.58476704 -18.24511719 5.70556641 C-17.63107025 5.33418045 -17.01702332 4.96279449 -16.3843689 4.58015442 C-14.69213807 3.5527583 -13.01047333 2.50801606 -11.32958984 1.4621582 C-7.11502589 -0.38862809 -4.5668569 -0.38022404 0 0 Z " fill="#000000" transform="translate(454,136)"/>
<path d="M0 0 C1.10794922 -0.01260864 2.21589844 -0.02521729 3.35742188 -0.03820801 C4.54916016 -0.03011108 5.74089844 -0.02201416 6.96875 -0.01367188 C8.19658203 -0.01749878 9.42441406 -0.02132568 10.68945312 -0.02526855 C13.28516459 -0.02799029 15.88090336 -0.02061099 18.4765625 -0.00390625 C22.45374599 0.01749738 26.42912282 -0.0037015 30.40625 -0.02929688 C32.92708733 -0.02665365 35.44792353 -0.02152878 37.96875 -0.01367188 C39.16048828 -0.0217688 40.35222656 -0.02986572 41.58007812 -0.03820801 C43.24200195 -0.01929504 43.24200195 -0.01929504 44.9375 0 C45.91138672 0.00318237 46.88527344 0.00636475 47.88867188 0.00964355 C51.19021681 0.65961178 52.38452655 1.93295409 54.46875 4.51757812 C55 6.51757812 55 6.51757812 54.96875 8.51757812 C54.98421875 9.50757813 54.98421875 9.50757813 55 10.51757812 C54.2245785 13.43681202 52.78007479 14.6111988 50.46875 16.51757812 C47.88867188 17.0255127 47.88867188 17.0255127 44.9375 17.03515625 C43.82955078 17.04776489 42.72160156 17.06037354 41.58007812 17.07336426 C40.38833984 17.06526733 39.19660156 17.05717041 37.96875 17.04882812 C36.12700195 17.05456848 36.12700195 17.05456848 34.24804688 17.0604248 C31.65233541 17.06314654 29.05659664 17.05576724 26.4609375 17.0390625 C22.48375401 17.01765887 18.50837718 17.03885775 14.53125 17.06445312 C12.01041267 17.0618099 9.48957647 17.05668503 6.96875 17.04882812 C5.77701172 17.05692505 4.58527344 17.06502197 3.35742188 17.07336426 C1.69549805 17.05445129 1.69549805 17.05445129 0 17.03515625 C-0.97388672 17.03197388 -1.94777344 17.0287915 -2.95117188 17.0255127 C-6.25271681 16.37554447 -7.44702655 15.10220216 -9.53125 12.51757812 C-10.0625 10.51757812 -10.0625 10.51757812 -10.03125 8.51757812 C-10.04671875 7.52757812 -10.04671875 7.52757812 -10.0625 6.51757812 C-8.67664018 1.3002235 -4.95665502 0.01619688 0 0 Z " fill="#000000" transform="translate(433.53125,247.482421875)"/>
<path d="M0 0 C1.10794922 -0.01260864 2.21589844 -0.02521729 3.35742188 -0.03820801 C4.54916016 -0.03011108 5.74089844 -0.02201416 6.96875 -0.01367188 C8.19658203 -0.01749878 9.42441406 -0.02132568 10.68945312 -0.02526855 C13.28516459 -0.02799029 15.88090336 -0.02061099 18.4765625 -0.00390625 C22.45374599 0.01749738 26.42912282 -0.0037015 30.40625 -0.02929688 C32.92708733 -0.02665365 35.44792353 -0.02152878 37.96875 -0.01367188 C39.16048828 -0.0217688 40.35222656 -0.02986572 41.58007812 -0.03820801 C43.24200195 -0.01929504 43.24200195 -0.01929504 44.9375 0 C45.91138672 0.00318237 46.88527344 0.00636475 47.88867188 0.00964355 C51.19021681 0.65961178 52.38452655 1.93295409 54.46875 4.51757812 C55 6.51757812 55 6.51757812 54.96875 8.51757812 C54.98421875 9.50757813 54.98421875 9.50757813 55 10.51757812 C54.2245785 13.43681202 52.78007479 14.6111988 50.46875 16.51757812 C47.88867188 17.0255127 47.88867188 17.0255127 44.9375 17.03515625 C43.82955078 17.04776489 42.72160156 17.06037354 41.58007812 17.07336426 C40.38833984 17.06526733 39.19660156 17.05717041 37.96875 17.04882812 C36.12700195 17.05456848 36.12700195 17.05456848 34.24804688 17.0604248 C31.65233541 17.06314654 29.05659664 17.05576724 26.4609375 17.0390625 C22.48375401 17.01765887 18.50837718 17.03885775 14.53125 17.06445312 C12.01041267 17.0618099 9.48957647 17.05668503 6.96875 17.04882812 C5.77701172 17.05692505 4.58527344 17.06502197 3.35742188 17.07336426 C1.69549805 17.05445129 1.69549805 17.05445129 0 17.03515625 C-0.97388672 17.03197388 -1.94777344 17.0287915 -2.95117188 17.0255127 C-6.25271681 16.37554447 -7.44702655 15.10220216 -9.53125 12.51757812 C-10.0625 10.51757812 -10.0625 10.51757812 -10.03125 8.51757812 C-10.04671875 7.52757812 -10.04671875 7.52757812 -10.0625 6.51757812 C-8.67664018 1.3002235 -4.95665502 0.01619688 0 0 Z " fill="#000000" transform="translate(33.53125,247.482421875)"/>
<path d="M0 0 C0.66 -0.0103125 1.32 -0.020625 2 -0.03125 C4.9192339 0.7441715 6.09362068 2.18867521 8 4.5 C8.50793457 7.08007812 8.50793457 7.08007812 8.51757812 10.03125 C8.53018677 11.13919922 8.54279541 12.24714844 8.55578613 13.38867188 C8.54768921 14.58041016 8.53959229 15.77214844 8.53125 17 C8.5350769 18.22783203 8.53890381 19.45566406 8.54284668 20.72070312 C8.54556842 23.31641459 8.53818911 25.91215336 8.52148438 28.5078125 C8.50008075 32.48499599 8.52127963 36.46037282 8.546875 40.4375 C8.54423177 42.95833733 8.53910691 45.47917353 8.53125 48 C8.53934692 49.19173828 8.54744385 50.38347656 8.55578613 51.61132812 C8.54317749 52.71927734 8.53056885 53.82722656 8.51757812 54.96875 C8.51280457 56.42958008 8.51280457 56.42958008 8.50793457 57.91992188 C7.85796634 61.22146681 6.58462403 62.41577655 4 64.5 C2 65.03125 2 65.03125 0 65 C-0.66 65.0103125 -1.32 65.020625 -2 65.03125 C-4.9192339 64.2558285 -6.09362068 62.81132479 -8 60.5 C-8.50793457 57.91992188 -8.50793457 57.91992188 -8.51757812 54.96875 C-8.53018677 53.86080078 -8.54279541 52.75285156 -8.55578613 51.61132812 C-8.54768921 50.41958984 -8.53959229 49.22785156 -8.53125 48 C-8.5350769 46.77216797 -8.53890381 45.54433594 -8.54284668 44.27929688 C-8.54556842 41.68358541 -8.53818911 39.08784664 -8.52148438 36.4921875 C-8.50008075 32.51500401 -8.52127963 28.53962718 -8.546875 24.5625 C-8.54423177 22.04166267 -8.53910691 19.52082647 -8.53125 17 C-8.53934692 15.80826172 -8.54744385 14.61652344 -8.55578613 13.38867188 C-8.54317749 12.28072266 -8.53056885 11.17277344 -8.51757812 10.03125 C-8.51439575 9.05736328 -8.51121338 8.08347656 -8.50793457 7.08007812 C-7.60624909 2.49992327 -4.66382617 -0.07287228 0 0 Z " fill="#000000" transform="translate(256,23.5)"/>
<path d="M0 0 C14.52 0 29.04 0 44 0 C42.52680178 5.89279287 38.95783077 9.71498052 34.1796875 13.40625 C27.9493687 17.05580913 20.63100044 17.20565701 13.734375 15.41015625 C7.92725639 12.92955637 3.550284 8.12713885 0 3 C0 2.01 0 1.02 0 0 Z " fill="#EEEEEE" transform="translate(234,456)"/>
<path d="M0 0 C2.10358381 1.54262813 2.84054159 2.68108317 4 5 C4.35519903 8.83614957 4.54724594 11.14629634 2.4375 14.4375 C-0.89631658 16.57456191 -3.10731057 16.41707387 -7 16 C-9.76142665 14.98263229 -10.68085371 14.63829259 -12 12 C-12.49055907 7.66672826 -12.47744439 5.67999656 -9.9375 2.0625 C-6.28847911 -0.4995785 -4.37238596 -0.64776088 0 0 Z " fill="#010101" transform="translate(169,157)"/>
</svg>
